<svg xmlns="http://www.w3.org/2000/svg" xmlns:xlink="http://www.w3.org/1999/xlink" width="113" zoomAndPan="magnify" viewBox="0 0 84.75 30.000001" height="40" preserveAspectRatio="xMidYMid meet" version="1.0"><defs><g/></defs><g fill="#ffffff" fill-opacity="1"><g transform="translate(3.043087, 20.746504)"><g><path d="M 4.84375 0 L 8.859375 0 L 13.59375 -10.9375 L 10.0625 -10.9375 L 7.46875 -4.3125 L 6.890625 -2.65625 L 6.75 -2.65625 L 6.203125 -4.3125 L 3.59375 -10.9375 L 0.0625 -10.9375 Z M 4.84375 0 "/></g></g></g><g fill="#ffffff" fill-opacity="1"><g transform="translate(16.686603, 20.746504)"><g><path d="M 1.015625 -12.34375 L 4.453125 -12.34375 L 4.453125 -14.875 L 1.015625 -14.875 Z M 1.015625 0 L 4.453125 0 L 4.453125 -10.9375 L 1.015625 -10.9375 Z M 1.015625 0 "/></g></g></g><g fill="#ffffff" fill-opacity="1"><g transform="translate(22.152163, 20.746504)"><g><path d="M 1.015625 0 L 4.453125 0 L 4.453125 -3.125 L 6.21875 -4.59375 L 6.9375 -3.609375 L 9.75 0 L 14.015625 0 L 8.71875 -6.609375 L 13.875 -10.9375 L 9.53125 -10.9375 L 5.796875 -7.78125 L 4.453125 -6.53125 L 4.453125 -14.875 L 1.015625 -14.875 Z M 1.015625 0 "/></g></g></g><g fill="#ffffff" fill-opacity="1"><g transform="translate(36.223955, 20.746504)"><g><path d="M 1.015625 0 L 4.453125 0 L 4.453125 -5.203125 C 4.472656 -6.210938 4.734375 -6.9375 5.234375 -7.375 C 5.734375 -7.820312 6.414062 -8.046875 7.28125 -8.046875 C 7.4375 -8.046875 7.601562 -8.035156 7.78125 -8.015625 C 7.957031 -8.003906 8.117188 -7.984375 8.265625 -7.953125 L 8.265625 -11.046875 C 8.015625 -11.078125 7.710938 -11.09375 7.359375 -11.09375 C 6.640625 -11.09375 6.019531 -10.921875 5.5 -10.578125 C 4.988281 -10.242188 4.617188 -9.785156 4.390625 -9.203125 L 4.25 -9.203125 L 4.125 -10.9375 L 1.015625 -10.9375 Z M 1.015625 0 "/></g></g></g><g fill="#ffffff" fill-opacity="1"><g transform="translate(44.830176, 20.746504)"><g><path d="M 5.9375 0.203125 C 6.832031 0.203125 7.640625 0.0234375 8.359375 -0.328125 C 9.085938 -0.679688 9.617188 -1.15625 9.953125 -1.75 L 10.09375 -1.75 L 10.09375 0 L 13.546875 0 L 13.546875 -10.9375 L 10.28125 -10.9375 L 10.1875 -9.21875 L 10.046875 -9.21875 C 9.734375 -9.78125 9.234375 -10.238281 8.546875 -10.59375 C 7.859375 -10.945312 6.988281 -11.125 5.9375 -11.125 C 4.863281 -11.125 3.921875 -10.890625 3.109375 -10.421875 C 2.296875 -9.960938 1.664062 -9.3125 1.21875 -8.46875 C 0.769531 -7.625 0.546875 -6.625 0.546875 -5.46875 C 0.546875 -4.3125 0.769531 -3.304688 1.21875 -2.453125 C 1.664062 -1.609375 2.296875 -0.953125 3.109375 -0.484375 C 3.921875 -0.0234375 4.863281 0.203125 5.9375 0.203125 Z M 7 -2.40625 C 6.101562 -2.40625 5.378906 -2.671875 4.828125 -3.203125 C 4.285156 -3.742188 4.015625 -4.5 4.015625 -5.46875 C 4.015625 -6.445312 4.289062 -7.195312 4.84375 -7.71875 C 5.394531 -8.25 6.113281 -8.515625 7 -8.515625 C 7.96875 -8.515625 8.722656 -8.242188 9.265625 -7.703125 C 9.804688 -7.160156 10.078125 -6.507812 10.078125 -5.75 L 10.078125 -5.21875 C 10.078125 -4.4375 9.804688 -3.769531 9.265625 -3.21875 C 8.722656 -2.675781 7.96875 -2.40625 7 -2.40625 Z M 7 -2.40625 "/></g></g></g><g fill="#ffffff" fill-opacity="1"><g transform="translate(59.371019, 20.746504)"><g><path d="M 1.015625 0 L 4.453125 0 L 4.453125 -5.671875 C 4.453125 -6.515625 4.6875 -7.203125 5.15625 -7.734375 C 5.625 -8.265625 6.289062 -8.53125 7.15625 -8.53125 C 8.019531 -8.53125 8.617188 -8.265625 8.953125 -7.734375 C 9.285156 -7.203125 9.453125 -6.484375 9.453125 -5.578125 L 9.453125 0 L 12.875 0 L 12.875 -5.671875 C 12.875 -6.515625 13.113281 -7.203125 13.59375 -7.734375 C 14.082031 -8.265625 14.75 -8.53125 15.59375 -8.53125 C 16.476562 -8.53125 17.082031 -8.265625 17.40625 -7.734375 C 17.726562 -7.203125 17.890625 -6.492188 17.890625 -5.609375 L 17.890625 0 L 21.328125 0 L 21.328125 -6.0625 C 21.328125 -7.800781 20.925781 -9.082031 20.125 -9.90625 C 19.332031 -10.726562 18.226562 -11.140625 16.8125 -11.140625 C 15.863281 -11.140625 15.023438 -10.945312 14.296875 -10.5625 C 13.566406 -10.1875 12.988281 -9.578125 12.5625 -8.734375 L 12.390625 -8.734375 C 12.085938 -9.523438 11.59375 -10.125 10.90625 -10.53125 C 10.226562 -10.9375 9.414062 -11.140625 8.46875 -11.140625 C 7.59375 -11.140625 6.820312 -10.960938 6.15625 -10.609375 C 5.488281 -10.253906 4.976562 -9.742188 4.625 -9.078125 L 4.453125 -9.078125 L 4.3125 -10.9375 L 1.015625 -10.9375 Z M 1.015625 0 "/></g></g></g></svg>